<svg height="758" width="1123.2" xmlns="http://www.w3.org/2000/svg" xmlns:xlink="http://www.w3.org/1999/xlink"><marker id="a" markerHeight="10" markerWidth="10" orient="auto" viewBox="-14 -10 28 20"><path d="m0 0-12 8v-16z" stroke="#000" stroke-dasharray="100" stroke-width="2"/></marker><marker id="b" markerHeight="10" markerWidth="10" orient="auto" viewBox="-14 -10 28 20"><path d="m0 0-12 8v-16z" stroke="#000" stroke-dasharray="100" stroke-width="2"/></marker><marker id="c" markerHeight="10" markerWidth="10" orient="auto" viewBox="-14 -10 28 20"><path d="m0 0-12 8v-16z" stroke="#000" stroke-dasharray="100" stroke-width="2"/></marker><marker id="d" markerHeight="10" markerWidth="10" orient="auto" viewBox="-14 -10 28 20"><path d="m0 0-12 8v-16z" stroke="#000" stroke-dasharray="100" stroke-width="2"/></marker><marker id="e" markerHeight="10" markerWidth="10" orient="auto" viewBox="-14 -10 28 20"><path d="m0 0-12 8v-16z" fill="#fff" stroke="#000" stroke-dasharray="100" stroke-width="2"/></marker><marker id="f" markerHeight="10" markerWidth="10" orient="auto" viewBox="-14 -10 28 20"><path d="m0 0-12 8v-16z" stroke="#000" stroke-dasharray="100" stroke-width="2"/></marker><marker id="g" markerHeight="10" markerWidth="10" orient="auto" viewBox="-14 -10 28 20"><path d="m0 0-12 8v-16z" stroke="#000" stroke-dasharray="100" stroke-width="2"/></marker><marker id="h" markerHeight="10" markerWidth="10" orient="auto" viewBox="-14 -10 28 20"><path d="m0 0-12 8v-16z" stroke="#000" stroke-dasharray="100" stroke-width="2"/></marker><marker id="i" markerHeight="10" markerWidth="10" orient="auto" viewBox="-14 -10 28 20"><path d="m0 0-12 8v-16z" stroke="#000" stroke-dasharray="100" stroke-width="2"/></marker><marker id="j" markerHeight="10" markerWidth="10" orient="auto" viewBox="-14 -10 28 20"><path d="m0 0-12 8v-16z" stroke="#000" stroke-dasharray="100" stroke-width="2"/></marker><marker id="k" markerHeight="10" markerWidth="10" orient="auto" viewBox="-14 -10 28 20"><path d="m0 0-12 8v-16z" stroke="#000" stroke-dasharray="100" stroke-width="2"/></marker><marker id="l" markerHeight="10" markerWidth="10" orient="auto" viewBox="-14 -10 28 20"><path d="m0 0-12 8v-16z" stroke="#000" stroke-dasharray="100" stroke-width="2"/></marker><marker id="m" markerHeight="10" markerWidth="10" orient="auto" viewBox="-14 -10 28 20"><path d="m0 0-12 8v-16z" stroke="#000" stroke-dasharray="100" stroke-width="2"/></marker><marker id="n" markerHeight="10" markerWidth="10" orient="auto" viewBox="-14 -10 28 20"><path d="m0 0-12 8v-16z" stroke="#000" stroke-dasharray="100" stroke-width="2"/></marker><marker id="o" markerHeight="10" markerWidth="10" orient="auto" viewBox="-14 -10 28 20"><path d="m0 0-12 8v-16z" stroke="#000" stroke-dasharray="100" stroke-width="2"/></marker><marker id="p" markerHeight="10" markerWidth="10" orient="auto" viewBox="-14 -10 28 20"><path d="m0 0-12 8v-16z" stroke="#000" stroke-dasharray="100" stroke-width="2"/></marker><marker id="q" markerHeight="10" markerWidth="10" orient="auto" viewBox="-14 -10 28 20"><path d="m0 0-12 8v-16z" fill="#fff" stroke="#000" stroke-dasharray="100" stroke-width="2"/></marker><marker id="r" markerHeight="10" markerWidth="10" orient="auto" viewBox="-14 -10 28 20"><path d="m0 0-12 8v-16z" fill="#fff" stroke="#000" stroke-dasharray="100" stroke-width="2"/></marker><marker id="s" markerHeight="10" markerWidth="10" orient="auto" viewBox="-14 -10 28 20"><path d="m0 0-12 8v-16z" stroke="#000" stroke-dasharray="100" stroke-width="2"/></marker><marker id="t" markerHeight="10" markerWidth="10" orient="auto" viewBox="-14 -10 28 20"><path d="m0 0-12 8v-16z" fill="#fff" stroke="#000" stroke-dasharray="100" stroke-width="2"/></marker><marker id="u" markerHeight="10" markerWidth="10" orient="auto" viewBox="-14 -10 28 20"><path d="m0 0-12 8v-16z" fill="#fff" stroke="#000" stroke-dasharray="100" stroke-width="2"/></marker><marker id="v" markerHeight="20" markerUnits="userSpaceOnUse" markerWidth="20" orient="auto" refX="-8" viewBox="-10 -10 20 20"><path d="m0-8 8 8-8 8-8-8 8-8 8 8" fill="#fff" stroke="#000" stroke-dasharray="100" stroke-width="2"/></marker><marker id="w" markerHeight="20" markerUnits="userSpaceOnUse" markerWidth="20" orient="auto" refX="-8" viewBox="-10 -10 20 20"><path d="m0-8 8 8-8 8-8-8 8-8 8 8" fill="#fff" stroke="#000" stroke-dasharray="100" stroke-width="2"/></marker><marker id="x" markerHeight="20" markerUnits="userSpaceOnUse" markerWidth="20" orient="auto" refX="-8" viewBox="-10 -10 20 20"><path d="m0-8 8 8-8 8-8-8 8-8 8 8" fill="#fff" stroke="#000" stroke-dasharray="100" stroke-width="2"/></marker><marker id="y" markerHeight="20" markerUnits="userSpaceOnUse" markerWidth="20" orient="auto" refX="-8" viewBox="-10 -10 20 20"><path d="m0-8 8 8-8 8-8-8 8-8 8 8" fill="#fff" stroke="#000" stroke-dasharray="100" stroke-width="2"/></marker><g fill="none" stroke="#000" stroke-width="2" transform="matrix(.57205964 0 0 .57205964 218.926571 253.446695)"><path d="m311.60339903 451.15951351q-72.42074528 106.84471503-77.624943 133.01130257-5.20419771 26.16658755 25.58296581 128.65457288" marker-end="url(#a)"/><path d="m995.70276608 1155.29342765q-72.43106372 6.1046364-90.53882965 7.6307955-18.10776593 1.5261591-90.53882966 7.63079549" marker-end="url(#b)"/><path d="m112.18473553-8.86038554q-64.9740364-33.04025377-81.2175455-41.30031721-16.2435091-8.26006344-81.2175455-41.30031722" marker-end="url(#c)"/><path d="m439.19315908 64.38821186q-92.53529822-16.47651891-115.66912278-20.59564864-23.13382456-4.11912972-115.66912278-20.59564863" marker-end="url(#d)"/><path d="m856.70714238 261.12299853q107.18523816 15.8751346 133.9815477 19.84391826 26.79630954 3.96878365 133.98154771 19.84391826" marker-end="url(#e)" stroke-dasharray="3"/><path d="m290.43437417 427.20474988q-70.18212203 30.08341913-87.72765253 37.60427391-17.54553051 7.52085479-87.72765254 37.60427392" marker-end="url(#f)"/><path d="m1056.56342734 1151.35267706q118.96500492 56.15065084 109.74699938 73.89968951-9.21800553 17.74903868-123.57400768-47.2761315" marker-end="url(#g)"/><path d="m1041.65750657 1178.63347054q5.3270867 132.14035768-14.67285203 132.18986116-19.99993874.04950348-15.32705608-132.11560594" marker-end="url(#h)"/><path d="m542.45157565 61.82625549q-12.01867545 134.41885384-15.02334431 168.02356729-3.00466886 33.60471346-15.02334431 168.0235673" marker-end="url(#i)"/><path d="m1007.81503154 1128.02458212q-47.40329186-62.26460082-59.25411483-77.83075102-11.85082296-15.56615021-59.25411483-77.83075102" marker-end="url(#j)"/><path d="m316.09850999 360.73193807q-54.89716293-120.03815755-68.62145367-150.04769694-13.72429073-30.00953939-68.62145367-150.04769694" marker-end="url(#k)"/><path d="m850.76799242 228.75485953q97.01599487-54.26397695 121.26999359-67.82997119 24.25399872-13.56599424 121.26999359-67.82997119" marker-end="url(#l)"/><path d="m1019.89805803 1181.93328176q-88.32297615 102.40771909-102.97491228 88.79446203-14.65193612-13.61325706 80.9970081-109.21434762" marker-end="url(#m)"/><path d="m757.78683154 269.51271214q-148.80268333 48.69493834-186.00335417 60.86867292-37.20067083 12.17373458-186.00335417 60.86867292" marker-end="url(#n)"/><path d="m109.96172167 32.34916572q-66.34622831 25.17401539-82.93278539 31.46751924-16.58655708 6.29350385-82.9327854 31.46751925" marker-end="url(#o)"/><path d="m1050.73997996 1133.24935955q60.46190057-48.67792683 75.57737572-60.84740854 15.11547514-12.1694817 75.57737571-60.84740854" marker-end="url(#p)"/><path d="m153.75218479-36.59459692q-8.1651182-106.66954108-10.20639775-133.33692636-2.04127955-26.66738527-10.20639774-133.33692635" marker-end="url(#q)" stroke-dasharray="3"/><path d="m328.93052111 457.41882664q-18.23662184 113.09241852-23.09337917 138.65199702-4.85675733 25.55957851-25.47419412 116.94378799" marker-end="url(#r)" stroke-dasharray="3"/><path d="m1016.60629993 1124.40103236q19.84186957-133.77938091 39.50344583-130.11571893 19.66157626 3.66366198-10.01108144 135.6112119" marker-end="url(#s)"/><path d="m828.77903536 207.8930959q49.12492491-99.80884811 61.40615614-124.76106014 12.28123123-24.95221202 61.40615613-124.76106013" marker-end="url(#t)" stroke-dasharray="3"/><path d="m477.03803905 489.30105943q-70.68202465 93.16586392-88.35253082 116.4573299-17.67050616 23.29146598-88.35253081 116.4573299" marker-end="url(#u)" stroke-dasharray="3"/><g stroke-dasharray="8"><path d="m584.23124492 45.87640511q73.91538687 69.1708097 92.39423359 86.46351212 18.47884672 17.29270243 92.39423358 86.46351212" marker-start="url(#v)"/><path d="m495.99522744 11.4516826q-114.94093598.95287256-143.67616998 1.1910907-28.735234.23821814-143.67616999 1.1910907" marker-start="url(#w)"/><path d="m533.72817696 98.55380706q91.28182431 51.94872008 114.10228039 64.93590009 22.82045608 12.98718002 114.10228039 64.93590009" marker-start="url(#x)"/><path d="m468.256366 119.73754931q-43.91993062 96.38608812-54.89991327 120.48261015-10.97998266 24.09652203-54.89991327 120.48261016" marker-start="url(#y)"/></g></g><g font-size="10" text-anchor="middle"><text dy=".5ex" transform="matrix(.57205964 0 0 .57205964 359.680617 651.680614)">1..*</text><text dy=".5ex" transform="matrix(.57205964 0 0 .57205964 695.29101 916.460756)">1..*</text><text dy=".5ex" transform="matrix(.57205964 0 0 .57205964 202.461801 200.953072)">1..*</text><text dy=".5ex" transform="matrix(.57205964 0 0 .57205964 349.535622 262.990052)">1..*</text><text dy=".5ex" transform="matrix(.57205964 0 0 .57205964 292.437696 531.316946)">1..*</text><text dy=".5ex" transform="matrix(.57205964 0 0 .57205964 834.21953 920.960441)">1..*</text><text dy=".5ex" transform="matrix(.57205964 0 0 .57205964 507.322831 469.7186)">1..*</text><text dy=".5ex" transform="matrix(.57205964 0 0 .57205964 738.798691 814.879214)">1..*</text><text dy=".5ex" transform="matrix(.57205964 0 0 .57205964 330.965495 295.639708)">1..*</text><text dy=".5ex" transform="matrix(.57205964 0 0 .57205964 837.670406 317.001077)">1..*</text><text dy=".5ex" transform="matrix(.57205964 0 0 .57205964 790.921037 937.702324)">1..*</text><text dy=".5ex" transform="matrix(.57205964 0 0 .57205964 448.166694 468.447713)">1..*</text><text dy=".5ex" transform="matrix(.57205964 0 0 .57205964 195.079019 298.750536)">1..*</text><text dy=".5ex" transform="matrix(.57205964 0 0 .57205964 901.603248 843.388342)">1..*</text><text dy=".5ex" transform="matrix(.57205964 0 0 .57205964 805.814919 883.687171)">1..*</text></g><g transform="matrix(.57205964 0 0 .57205964 441.277863 599.976621)"><path d="m-41-14h82v28h-82z" fill="#fff"/><text font-family="Helvetica, Arial, sans-serif" font-size="12" pointer-events="none" text-anchor="middle" y="-7.023438"><tspan dy="12" font-family="Helvetica, Arial, sans-serif" font-size="12" pointer-events="none" x="0">Subclass of</tspan></text></g><g transform="matrix(.57205964 0 0 .57205964 728.165591 301.003178)"><path d="m-41-14h82v28h-82z" fill="#fff"/><text font-family="Helvetica, Arial, sans-serif" font-size="12" pointer-events="none" text-anchor="middle" y="-7.023438"><tspan dy="12" font-family="Helvetica, Arial, sans-serif" font-size="12" pointer-events="none" x="0">Subclass of</tspan></text></g><g transform="matrix(.57205964 0 0 .57205964 393.883656 594.434756)"><path d="m-41-14h82v28h-82z" fill="#fff"/><text font-family="Helvetica, Arial, sans-serif" font-size="12" pointer-events="none" text-anchor="middle" y="-7.023438"><tspan dy="12" font-family="Helvetica, Arial, sans-serif" font-size="12" pointer-events="none" x="0">Subclass of</tspan></text></g><g transform="matrix(.57205964 0 0 .57205964 301.043322 156.235729)"><path d="m-41-14h82v28h-82z" fill="#fff"/><text font-family="Helvetica, Arial, sans-serif" font-size="12" pointer-events="none" text-anchor="middle" y="-7.023438"><tspan dy="12" font-family="Helvetica, Arial, sans-serif" font-size="12" pointer-events="none" x="0">Subclass of</tspan></text></g><g transform="matrix(.57205964 0 0 .57205964 785.659586 414.176528)"><path d="m-41-14h82v28h-82z" fill="#fff"/><text font-family="Helvetica, Arial, sans-serif" font-size="12" pointer-events="none" text-anchor="middle" y="-7.023438"><tspan dy="12" font-family="Helvetica, Arial, sans-serif" font-size="12" pointer-events="none" x="0">Subclass of</tspan></text></g><g transform="matrix(.57205964 0 0 .57205964 352.776202 587.627242)"><path d="m-40.5-14h81v28h-81z" fill="#acf"/><text font-family="Helvetica, Arial, sans-serif" font-size="12" pointer-events="none" text-anchor="middle" y="-7.023438"><tspan dy="12" font-family="Helvetica, Arial, sans-serif" font-size="12" pointer-events="none" x="0">hilucsValue</tspan></text></g><g transform="matrix(.57205964 0 0 .57205964 736.734326 918.708707)"><path d="m-44.5-14h89v28h-89z" fill="#36c"/><text fill="#fff" font-family="Helvetica, Arial, sans-serif" font-size="12" pointer-events="none" text-anchor="middle" y="-7.179688"><tspan dy="12" font-family="Helvetica, Arial, sans-serif" font-size="12" pointer-events="none" x="0">validThrough</tspan></text></g><g transform="matrix(.57205964 0 0 .57205964 236.641651 224.751781)"><path d="m-54.5-14h109v28h-109z" fill="#9c6"/><text font-family="Helvetica, Arial, sans-serif" font-size="12" pointer-events="none" text-anchor="middle" y="-7.023438"><tspan dy="12" font-family="Helvetica, Arial, sans-serif" font-size="12" pointer-events="none" x="0">metadataAsXML</tspan></text></g><g transform="matrix(.57205964 0 0 .57205964 404.001615 278.498653)"><path d="m-45.5-14h91v28h-91z" fill="#acf"/><text font-family="Helvetica, Arial, sans-serif" font-size="12" pointer-events="none" text-anchor="middle" y="-7.179688"><tspan dy="12" font-family="Helvetica, Arial, sans-serif" font-size="12" pointer-events="none" x="0">originDataset</tspan></text></g><g transform="matrix(.57205964 0 0 .57205964 334.886905 519.345178)"><path d="m-51.5-14h103v28h-103z" fill="#9c6"/><text font-family="Helvetica, Arial, sans-serif" font-size="12" pointer-events="none" text-anchor="middle" y="-7.023438"><tspan dy="12" font-family="Helvetica, Arial, sans-serif" font-size="12" pointer-events="none" x="0">attributeAsJson</tspan></text></g><g transform="matrix(.57205964 0 0 .57205964 886.125694 954.364123)"><path d="m-16.5-14h33v28h-33z" fill="#36c"/><text fill="#fff" font-family="Helvetica, Arial, sans-serif" font-size="12" pointer-events="none" text-anchor="middle" y="-7.023438"><tspan dy="12" font-family="Helvetica, Arial, sans-serif" font-size="12" pointer-events="none" x="0">url</tspan></text></g><g transform="matrix(.57205964 0 0 .57205964 806.423043 1003.315818)"><path d="m-47.5-14h95v28h-95z" fill="#36c"/><text fill="#fff" font-family="Helvetica, Arial, sans-serif" font-size="12" pointer-events="none" text-anchor="middle" y="-7.109375"><tspan dy="12" font-family="Helvetica, Arial, sans-serif" font-size="12" pointer-events="none" x="0">parentFeature</tspan></text></g><g transform="matrix(.57205964 0 0 .57205964 520.646975 384.934502)"><path d="m-36.5-14h73v28h-73z" fill="#acf"/><text font-family="Helvetica, Arial, sans-serif" font-size="12" pointer-events="none" text-anchor="middle" y="-7.023438"><tspan dy="12" font-family="Helvetica, Arial, sans-serif" font-size="12" pointer-events="none" x="0">oluTheme</tspan></text></g><g transform="matrix(.57205964 0 0 .57205964 761.559988 854.2202)"><path d="m-28-14h56v28h-56z" fill="#9c6"/><text font-family="Helvetica, Arial, sans-serif" font-size="12" pointer-events="none" text-anchor="middle" y="-7.023438"><tspan dy="12" font-family="Helvetica, Arial, sans-serif" font-size="12" pointer-events="none" x="0">zValue</tspan></text></g><g transform="matrix(.57205964 0 0 .57205964 360.498207 373.970646)"><path d="m-47.5-14h95v28h-95z" fill="#acf"/><text font-family="Helvetica, Arial, sans-serif" font-size="12" pointer-events="none" text-anchor="middle" y="-7.179688"><tspan dy="12" font-family="Helvetica, Arial, sans-serif" font-size="12" pointer-events="none" x="0">attributeOrigin</tspan></text></g><g transform="matrix(.57205964 0 0 .57205964 774.990271 345.505328)"><path d="m-57.5-14h115v28h-115z" fill="#acf"/><text font-family="Helvetica, Arial, sans-serif" font-size="12" pointer-events="none" text-anchor="middle" y="-7.023438"><tspan dy="12" font-family="Helvetica, Arial, sans-serif" font-size="12" pointer-events="none" x="0">administrativeUnit</tspan></text></g><g transform="matrix(.57205964 0 0 .57205964 743.461296 980.378751)"><path d="m-46-14h92v28h-92z" fill="#36c"/><text fill="#fff" font-family="Helvetica, Arial, sans-serif" font-size="12" pointer-events="none" text-anchor="middle" y="-7.140625"><tspan dy="12" font-family="Helvetica, Arial, sans-serif" font-size="12" pointer-events="none" x="0">hasGeometry</tspan></text></g><g transform="matrix(.57205964 0 0 .57205964 546.020821 442.444551)"><path d="m-40.5-14h81v28h-81z" fill="#acf"/><text font-family="Helvetica, Arial, sans-serif" font-size="12" pointer-events="none" text-anchor="middle" y="-7.023438"><tspan dy="12" font-family="Helvetica, Arial, sans-serif" font-size="12" pointer-events="none" x="0">oluAttribute</tspan></text></g><g transform="matrix(.57205964 0 0 .57205964 234.388734 289.953645)"><path d="m-52-14h104v28h-104z" fill="#9c6"/><text font-family="Helvetica, Arial, sans-serif" font-size="12" pointer-events="none" text-anchor="middle" y="-7.023438"><tspan dy="12" font-family="Helvetica, Arial, sans-serif" font-size="12" pointer-events="none" x="0">columnsAsJson</tspan></text></g><g transform="matrix(.57205964 0 0 .57205964 863.247272 866.924569)"><path d="m-36.5-14h73v28h-73z" fill="#36c"/><text fill="#fff" font-family="Helvetica, Arial, sans-serif" font-size="12" pointer-events="none" text-anchor="middle" y="-7.023438"><tspan dy="12" font-family="Helvetica, Arial, sans-serif" font-size="12" pointer-events="none" x="0">validFrom</tspan></text></g><g transform="matrix(.57205964 0 0 .57205964 823.084332 822.237193)"><path d="m-23-14h46v28h-46z" fill="#36c"/><text fill="#fff" font-family="Helvetica, Arial, sans-serif" font-size="12" pointer-events="none" text-anchor="middle" y="-7.140625"><tspan dy="12" font-family="Helvetica, Arial, sans-serif" font-size="12" pointer-events="none" x="0">Type</tspan></text></g><g transform="matrix(.57205964 0 0 .57205964 891.165237 429.8029)"><circle fill="#36c" r="50" stroke="#000" stroke-width="2"/><text fill="#fff" font-family="Helvetica, Arial, sans-serif" font-size="12" pointer-events="none" text-anchor="middle" y="-12.03125"><tspan dy="12" font-family="Helvetica, Arial, sans-serif" font-size="12" pointer-events="none" x="0">Feature</tspan><tspan dy="10" font-family="Helvetica, Arial, sans-serif" font-size="9" pointer-events="none" x="0">(external)</tspan></text></g><g transform="matrix(.57205964 0 0 .57205964 309.108707 261.602346)"><circle fill="#acf" r="50" stroke="#000" stroke-width="2"/><text font-family="Helvetica, Arial, sans-serif" font-size="12" pointer-events="none" text-anchor="middle" y="-7.179688"><tspan dy="12" font-family="Helvetica, Arial, sans-serif" font-size="12" pointer-events="none" x="0">OriginDataset</tspan></text></g><g transform="matrix(.57205964 0 0 .57205964 411.887707 486.338946)"><circle fill="#acf" r="50" stroke="#000" stroke-width="2"/><text font-family="Helvetica, Arial, sans-serif" font-size="12" pointer-events="none" text-anchor="middle" y="-7.023438"><tspan dy="12" font-family="Helvetica, Arial, sans-serif" font-size="12" pointer-events="none" x="0">OLUAttribute</tspan></text></g><g transform="matrix(.57205964 0 0 .57205964 373.101237 689.840123)"><circle fill="#36c" r="50" stroke="#000" stroke-width="2"/><text fill="#fff" font-family="Helvetica, Arial, sans-serif" font-size="12" pointer-events="none" text-anchor="middle" y="-12.023438"><tspan dy="12" font-family="Helvetica, Arial, sans-serif" font-size="12" pointer-events="none" x="0">Concept</tspan><tspan dy="10" font-family="Helvetica, Arial, sans-serif" font-size="9" pointer-events="none" x="0">(external)</tspan></text></g><g transform="matrix(.57205964 0 0 .57205964 869.826607 292.460501)"><circle fill="#36c" r="50" stroke="#000" stroke-width="2"/><text fill="#fff" font-family="Helvetica, Arial, sans-serif" font-size="12" pointer-events="none" text-anchor="middle" y="-12.03125"><tspan dy="12" font-family="Helvetica, Arial, sans-serif" font-size="12" pointer-events="none" x="0">NUTSRegion</tspan><tspan dy="10" font-family="Helvetica, Arial, sans-serif" font-size="9" pointer-events="none" x="0">(external)</tspan></text></g><g transform="matrix(.57205964 0 0 .57205964 806.199134 912.854073)"><circle fill="#fff" r="30" stroke="#000" stroke-dasharray="8" stroke-width="2"/><text font-family="Helvetica, Arial, sans-serif" font-size="12" pointer-events="none" text-anchor="middle" y="-7.179688"><tspan dy="12" font-family="Helvetica, Arial, sans-serif" font-size="12" pointer-events="none" x="0">Thing</tspan></text></g><g transform="matrix(.57205964 0 0 .57205964 669.211097 924.399701)"><path d="m-26.5-10h53v20h-53z" fill="#fc3" stroke="#000" stroke-dasharray="8" stroke-width="2"/><text font-family="Helvetica, Arial, sans-serif" font-size="12" pointer-events="none" text-anchor="middle" y="-7.023438"><tspan dy="12" font-family="Helvetica, Arial, sans-serif" font-size="12" pointer-events="none" x="0">Literal</tspan></text></g><g transform="matrix(.57205964 0 0 .57205964 178.420836 195.14564)"><path d="m-26.5-10h53v20h-53z" fill="#fc3" stroke="#000" stroke-dasharray="8" stroke-width="2"/><text font-family="Helvetica, Arial, sans-serif" font-size="12" pointer-events="none" text-anchor="middle" y="-7.023438"><tspan dy="12" font-family="Helvetica, Arial, sans-serif" font-size="12" pointer-events="none" x="0">Literal</tspan></text></g><g transform="matrix(.57205964 0 0 .57205964 722.96137 803.520609)"><path d="m-26.5-10h53v20h-53z" fill="#fc3" stroke="#000" stroke-dasharray="8" stroke-width="2"/><text font-family="Helvetica, Arial, sans-serif" font-size="12" pointer-events="none" text-anchor="middle" y="-7.023438"><tspan dy="12" font-family="Helvetica, Arial, sans-serif" font-size="12" pointer-events="none" x="0">Literal</tspan></text></g><g transform="matrix(.57205964 0 0 .57205964 270.829988 546.803041)"><path d="m-26.5-10h53v20h-53z" fill="#fc3" stroke="#000" stroke-dasharray="8" stroke-width="2"/><text font-family="Helvetica, Arial, sans-serif" font-size="12" pointer-events="none" text-anchor="middle" y="-7.023438"><tspan dy="12" font-family="Helvetica, Arial, sans-serif" font-size="12" pointer-events="none" x="0">Literal</tspan></text></g><g transform="matrix(.57205964 0 0 .57205964 171.334726 313.87848)"><path d="m-26.5-10h53v20h-53z" fill="#fc3" stroke="#000" stroke-dasharray="8" stroke-width="2"/><text font-family="Helvetica, Arial, sans-serif" font-size="12" pointer-events="none" text-anchor="middle" y="-7.023438"><tspan dy="12" font-family="Helvetica, Arial, sans-serif" font-size="12" pointer-events="none" x="0">Literal</tspan></text></g><g transform="matrix(.57205964 0 0 .57205964 914.033072 826.036879)"><path d="m-26.5-10h53v20h-53z" fill="#fc3" stroke="#000" stroke-dasharray="8" stroke-width="2"/><text font-family="Helvetica, Arial, sans-serif" font-size="12" pointer-events="none" text-anchor="middle" y="-7.023438"><tspan dy="12" font-family="Helvetica, Arial, sans-serif" font-size="12" pointer-events="none" x="0">Literal</tspan></text></g><g transform="matrix(.57205964 0 0 .57205964 680.153936 398.550156)"><circle fill="#acf" r="50" stroke="#000" stroke-width="2"/><text font-family="Helvetica, Arial, sans-serif" font-size="12" pointer-events="none" text-anchor="middle" y="-7.117188"><tspan dy="12" font-family="Helvetica, Arial, sans-serif" font-size="12" pointer-events="none" x="0">OLUObject</tspan></text></g><g transform="matrix(.57205964 0 0 .57205964 776.177246 203.456199)"><circle fill="#36c" r="50" stroke="#000" stroke-width="2"/><text fill="#fff" font-family="Helvetica, Arial, sans-serif" font-size="12" pointer-events="none" text-anchor="middle" y="-12.03125"><tspan dy="12" font-family="Helvetica, Arial, sans-serif" font-size="12" pointer-events="none" x="0">Feature</tspan><tspan dy="10" font-family="Helvetica, Arial, sans-serif" font-size="9" pointer-events="none" x="0">(external)</tspan></text></g><circle cx="531.839461" cy="259.755885" fill="#acf" r="28.602982" stroke="#000" stroke-width="1.14411928"/><g pointer-events="none" transform="matrix(.57205964 0 0 .57205964 531.839461 259.755885)"><circle cx="-5" cy="-.35" fill="#69c" r="10"/><g stroke="#000" transform="translate(-5 -.35)"><circle cx="10" fill="#69c" r="10"/><g fill="none"><circle r="10"/><path d="m1-3v6c0 2 2 3 4 3s4-1 4-3 0-4 0-6" stroke-width="2" transform="matrix(.5 0 0 .5 2.5 0)"/></g></g><text/></g><circle cx="498.894523" cy="295.39496" fill="#acf" r="28.602982" stroke="#000" stroke-width="1.14411928"/><g pointer-events="none" transform="matrix(.57205964 0 0 .57205964 498.894523 295.39496)"><circle cx="-5" cy="-.35" fill="#69c" r="10"/><g stroke="#000" transform="translate(-5 -.35)"><circle cx="10" fill="#69c" r="10"/><g fill="none"><circle r="10"/><path d="m1-3v6c0 2 2 3 4 3s4-1 4-3 0-4 0-6" stroke-width="2" transform="matrix(.5 0 0 .5 2.5 0)"/></g></g><text/></g><g transform="matrix(.57205964 0 0 .57205964 509.454489 510.113119)"><circle fill="#acf" r="50" stroke="#000" stroke-width="2"/><text font-family="Helvetica, Arial, sans-serif" font-size="12" pointer-events="none" text-anchor="middle" y="-7.023438"><tspan dy="12" font-family="Helvetica, Arial, sans-serif" font-size="12" pointer-events="none" x="0">OLUTheme</tspan></text></g><g transform="matrix(.57205964 0 0 .57205964 292.977937 50.869112)"><circle fill="#36c" r="50" stroke="#000" stroke-width="2"/><text fill="#fff" font-family="Helvetica, Arial, sans-serif" font-size="12" pointer-events="none" text-anchor="middle" y="-12.03125"><tspan dy="12" font-family="Helvetica, Arial, sans-serif" font-size="12" pointer-events="none" x="0">Dataset</tspan><tspan dy="10" font-family="Helvetica, Arial, sans-serif" font-size="9" pointer-events="none" x="0">(external)</tspan></text></g></svg>